<mxfile host="app.diagrams.net" modified="2023-01-03T02:28:11.412Z" agent="5.0 (Macintosh; Intel Mac OS X 10_15_7) AppleWebKit/537.36 (KHTML, like Gecko) Chrome/102.0.0.0 Safari/537.36" etag="J1yfDKoaex3qKyaLRjjM" version="20.7.4" type="github">
  <diagram name="Page-1" id="e7e014a7-5840-1c2e-5031-d8a46d1fe8dd">
    <mxGraphModel dx="1434" dy="771" grid="1" gridSize="10" guides="1" tooltips="1" connect="1" arrows="1" fold="1" page="1" pageScale="1" pageWidth="1169" pageHeight="826" background="none" math="0" shadow="0">
      <root>
        <mxCell id="0" />
        <mxCell id="1" parent="0" />
        <mxCell id="nEyqf0SkfD7hxt7hdcOF-41" value="疗休养-酒店流程" style="swimlane;childLayout=stackLayout;resizeParent=1;resizeParentMax=0;startSize=20;html=1;" vertex="1" parent="1">
          <mxGeometry x="320" y="90" width="360" height="550" as="geometry" />
        </mxCell>
        <mxCell id="nEyqf0SkfD7hxt7hdcOF-42" value="用户" style="swimlane;startSize=20;html=1;" vertex="1" parent="nEyqf0SkfD7hxt7hdcOF-41">
          <mxGeometry y="20" width="120" height="530" as="geometry" />
        </mxCell>
        <mxCell id="nEyqf0SkfD7hxt7hdcOF-43" value="酒店商城" style="swimlane;startSize=20;html=1;" vertex="1" parent="nEyqf0SkfD7hxt7hdcOF-41">
          <mxGeometry x="120" y="20" width="120" height="530" as="geometry" />
        </mxCell>
        <mxCell id="nEyqf0SkfD7hxt7hdcOF-44" value="Lane 3" style="swimlane;startSize=20;html=1;" vertex="1" parent="nEyqf0SkfD7hxt7hdcOF-41">
          <mxGeometry x="240" y="20" width="120" height="530" as="geometry" />
        </mxCell>
      </root>
    </mxGraphModel>
  </diagram>
</mxfile>
